<?xml version="1.0" encoding="iso-8859-1"?>
<!-- Generator: Adobe Illustrator 18.1.1, SVG Export Plug-In . SVG Version: 6.00 Build 0)  -->
<svg xmlns="http://www.w3.org/2000/svg" xmlns:xlink="http://www.w3.org/1999/xlink" version="1.1" id="Capa_1" x="0px" y="0px" viewBox="0 0 476.554 476.554" style="enable-background:new 0 0 476.554 476.554;" xml:space="preserve" width="60px" height="60px">
<g>
	<g>
		<g>
			<g>
				<path d="M245.625,135.089c-0.122-10.99,4.975-19.557,9.917-27.889      c6.544-11.014,13.306-22.41,8.608-38.074c-4.788-14.363-13.859-21.419-21.882-27.678c-10.811-8.381-18.606-14.444-14.542-37.432      l0.35-1.967L216.444,0l-0.35,1.959c-5.3,30.027,7.568,40.009,18.915,48.828c7.324,5.714,14.249,11.096,17.867,21.898      c3.154,10.551-1.544,18.468-7.486,28.491c-5.527,9.315-11.778,19.817-11.632,33.896      c-58.932,0.065-119.132,2.504-119.132,211.928c0,94.381,75.84,129.553,123.652,129.553c47.788,0,123.652-35.164,123.652-129.553      C361.913,137.844,300.55,135.268,245.625,135.089z M244.162,146.908c48.633,0.106,94.178,2.032,103.973,139.218      c-33.27,15.55-68.231,23.825-103.973,24.646v-25.556c7.283-1.406,12.762-7.844,12.762-15.371v-77.189      c0-7.551-5.487-13.973-12.762-15.379V146.908z M235.31,188.754h5.901c2.146,0,3.894,1.764,3.894,3.91v77.189      c0,2.146-1.748,3.877-3.894,3.877h-5.901c-2.146,0-3.894-1.731-3.894-3.877v-77.189      C231.417,190.518,233.164,188.754,235.31,188.754z M232.343,146.908v30.385c-7.283,1.398-12.746,7.836-12.746,15.379v77.189      c0,7.527,5.462,13.965,12.746,15.371v25.556c-54.388-1.276-93.991-19.411-103.973-24.467      C138.125,148.932,183.686,147.005,232.343,146.908z" fill="#FFFFFF"/>
			</g>
		</g>
		<g>
			<g>
				<polygon points="276.294,170.822 264.727,184.958 287.845,184.958     " fill="#FFFFFF"/>
			</g>
		</g>
		<g>
			<g>
				<polygon points="276.701,291.922 288.251,277.786 265.158,277.786     " fill="#FFFFFF"/>
			</g>
		</g>
	</g>
</g>
<g>
</g>
<g>
</g>
<g>
</g>
<g>
</g>
<g>
</g>
<g>
</g>
<g>
</g>
<g>
</g>
<g>
</g>
<g>
</g>
<g>
</g>
<g>
</g>
<g>
</g>
<g>
</g>
<g>
</g>
</svg>
