<?xml version="1.0" encoding="iso-8859-1"?>
<!-- Generator: Adobe Illustrator 19.0.0, SVG Export Plug-In . SVG Version: 6.00 Build 0)  -->
<svg xmlns="http://www.w3.org/2000/svg" xmlns:xlink="http://www.w3.org/1999/xlink" version="1.1" id="Capa_1" x="0px" y="0px" viewBox="0 0 512 512" style="enable-background:new 0 0 512 512;" xml:space="preserve" width="512px" height="512px">
<g>
	<g>
		<path d="M455.827,50.452c-3.735-1.547-8.037-0.693-10.898,2.167l-15.278,15.278C382.228,24.034,320.954,0,256,0    c-56.571,0-110.193,18.082-155.067,52.292c-4.392,3.348-5.238,9.623-1.89,14.015c3.349,4.393,9.623,5.239,14.015,1.89    C154.418,36.667,203.847,20,256,20c62.957,0,122.168,24.496,166.727,68.977c3.906,3.899,10.233,3.896,14.136-0.006L442,83.833V126    h-42.167l4.503-4.503c1.877-1.877,2.93-4.423,2.929-7.077c-0.002-2.654-1.059-5.198-2.937-7.073C364.682,67.787,312.004,46,256,46    C143.556,46,51.469,134.828,46.234,246H20.208c1.805-43.187,15.283-84.722,39.253-120.694c3.063-4.596,1.82-10.804-2.776-13.867    c-4.596-3.061-10.804-1.819-13.867,2.776C14.807,156.251,0,205.28,0,256c0,5.523,4.477,10,10,10h46c5.523,0,10-4.477,10-10    c0-104.766,85.234-190,190-190c47.321,0,92.014,17.189,126.931,48.616l-14.313,14.313c-2.859,2.86-3.715,7.162-2.167,10.898    c1.548,3.736,5.195,6.173,9.239,6.173H452c5.523,0,10-4.477,10-10V59.69C462,55.646,459.563,52,455.827,50.452z" fill="#FFFFFF"/>
	</g>
</g>
<g>
	<g>
		<path d="M237.221,250.275H201.95v-26.377c0-3.102,2.523-5.625,5.625-5.625h28.995c5.523,0,10-4.477,10-10c0-5.523-4.477-10-10-10    h-28.995c-14.13,0-25.625,11.495-25.625,25.625v80.729c0,14.13,11.495,25.625,25.625,25.625h29.646    c14.017,0,25.559-11.441,25.729-25.504c0-0.04,0-0.081,0-0.121V275.9c0-0.04,0-0.081,0-0.121    C262.78,261.716,251.238,250.275,237.221,250.275z M242.95,304.552c-0.063,3.147-2.623,5.7-5.729,5.7h-29.646    c-3.102,0-5.625-2.523-5.625-5.625v-34.352h35.271c3.106,0,5.667,2.553,5.729,5.7V304.552z" fill="#FFFFFF"/>
	</g>
</g>
<g>
	<g>
		<path d="M329.325,198.273h-29.75c-14.13,0-25.625,11.495-25.625,25.625v80.729c0,14.13,11.495,25.625,25.625,25.625h29.75    c14.13,0,25.625-11.495,25.625-25.625v-80.729C354.95,209.768,343.455,198.273,329.325,198.273z M334.95,304.627    c0,3.102-2.523,5.625-5.625,5.625h-29.75c-3.102,0-5.625-2.523-5.625-5.625v-80.729c0-3.102,2.523-5.625,5.625-5.625h29.75    c3.102,0,5.625,2.523,5.625,5.625V304.627z" fill="#FFFFFF"/>
	</g>
</g>
<g>
	<g>
		<path d="M145.31,198.273h-25.531c-14.13,0-25.625,11.495-25.625,25.625v0.353c0,5.523,4.477,10,10,10s10-4.477,10-10v-0.353    c0-3.102,2.523-5.625,5.625-5.625h25.531c3.102,0,5.625,2.523,5.625,5.625v30.365h-25.65c-5.523,0-10,4.477-10,10s4.477,10,10,10    h25.65v30.364c0,3.102-2.523,5.625-5.625,5.625h-25.531c-3.102,0-5.625-2.523-5.625-5.625v-1.383c0-5.523-4.477-10-10-10    s-10,4.477-10,10v1.383c0,14.13,11.495,25.625,25.625,25.625h25.531c14.13,0,25.625-11.495,25.625-25.625v-80.729    C170.935,209.768,159.439,198.273,145.31,198.273z" fill="#FFFFFF"/>
	</g>
</g>
<g>
	<g>
		<path d="M391.321,181.748c-14.626,0-26.525,11.899-26.525,26.525s11.899,26.525,26.525,26.525    c14.626,0,26.525-11.899,26.525-26.525S405.947,181.748,391.321,181.748z M391.321,214.798c-3.598,0-6.525-2.927-6.525-6.525    c0-3.598,2.927-6.525,6.525-6.525c3.598,0,6.525,2.927,6.525,6.525C397.846,211.871,394.919,214.798,391.321,214.798z" fill="#FFFFFF"/>
	</g>
</g>
<g>
	<g>
		<path d="M502,246h-46c-5.523,0-10,4.477-10,10c0,104.766-85.234,190-190,190c-47.321,0-92.014-17.189-126.931-48.616    l14.313-14.313c2.859-2.86,3.715-7.162,2.167-10.898c-1.548-3.736-5.195-6.173-9.239-6.173H60c-5.523,0-10,4.477-10,10v76.31    c0,4.044,2.437,7.69,6.173,9.238c3.736,1.55,8.038,0.693,10.898-2.167l15.278-15.278C129.772,487.966,191.046,512,256,512    c56.571,0,110.193-18.082,155.067-52.292c4.392-3.348,5.238-9.623,1.89-14.015c-3.348-4.391-9.623-5.238-14.015-1.89    C357.582,475.333,308.153,492,256,492c-62.957,0-122.168-24.496-166.727-68.977c-3.906-3.899-10.232-3.896-14.136,0.006    L70,428.167V386h42.167l-4.503,4.503c-1.877,1.877-2.93,4.423-2.929,7.077c0.002,2.654,1.059,5.198,2.937,7.073    C147.318,444.213,199.996,466,256,466c112.444,0,204.531-88.828,209.766-200h26.026c-1.804,43.187-15.282,84.722-39.253,120.694    c-3.063,4.596-1.82,10.804,2.776,13.867s10.805,1.82,13.867-2.776C497.193,355.749,512,306.72,512,256    C512,250.477,507.523,246,502,246z" fill="#FFFFFF"/>
	</g>
</g>
<g>
	<g>
		<path d="M434.563,415.321h-0.106c-5.523,0-10,4.477-10,10s4.477,10,10,10h0.106c5.523,0,10-4.477,10-10    S440.086,415.321,434.563,415.321z" fill="#FFFFFF"/>
	</g>
</g>
<g>
	<g>
		<path d="M77.543,76.679h-0.106c-5.523,0-10,4.477-10,10s4.477,10,10,10h0.106c5.523,0,10-4.477,10-10S83.066,76.679,77.543,76.679    z" fill="#FFFFFF"/>
	</g>
</g>
<g>
</g>
<g>
</g>
<g>
</g>
<g>
</g>
<g>
</g>
<g>
</g>
<g>
</g>
<g>
</g>
<g>
</g>
<g>
</g>
<g>
</g>
<g>
</g>
<g>
</g>
<g>
</g>
<g>
</g>
</svg>
