<?xml version="1.0" encoding="iso-8859-1"?>
<!-- Generator: Adobe Illustrator 19.0.0, SVG Export Plug-In . SVG Version: 6.00 Build 0)  -->
<svg version="1.1" id="Layer_1" xmlns="http://www.w3.org/2000/svg" xmlns:xlink="http://www.w3.org/1999/xlink" x="0px" y="0px"
	 viewBox="0 0 512 512" style="enable-background:new 0 0 512 512;" xml:space="preserve">
<circle style="fill:#34495E;" cx="256" cy="256" r="256"/>
<path style="fill:#203549;" d="M499.274,335.713l-96.927-96.942h-0.044l-7.119-3.835l-0.015-0.018l-91.246-49.108v43.136
	l9.825,9.825h-52.716l-52.959-52.961l-98.378,52.961v70.154l197.847,197.885C397.972,488.325,470.973,422.139,499.274,335.713z"/>
<g>
	<polygon style="fill:#CEE2F2;" points="402.327,238.771 303.926,185.81 303.926,204.247 303.926,228.956 310.346,228.956 
		312.269,211.254 402.327,287.027 	"/>
	<polygon style="fill:#CEE2F2;" points="109.67,238.771 208.074,185.81 208.074,204.247 208.074,228.956 201.656,228.956 
		199.729,211.254 109.67,287.027 	"/>
</g>
<path style="fill:#F2F9FF;" d="M109.67,238.771v70.17h18.796c3.028,0,6.054,1.137,8.366,3.448c2.299,2.317,3.456,5.353,3.456,8.358
	v0.394c0,1.277,0.497,2.591,1.49,3.574c0.991,0.998,2.284,1.48,3.581,1.48h78.966c2.934,0,5.898-0.758,8.607-2.345
	c2.701-1.595,4.785-3.827,6.203-6.413l9.462-17.239c1.434-2.614,4.214-4.383,7.406-4.383c3.197,0,5.97,1.769,7.401,4.383
	l9.467,17.239c1.405,2.586,3.505,4.818,6.2,6.413c2.698,1.587,5.663,2.345,8.604,2.345h78.961c1.293,0,2.601-0.481,3.581-1.48
	c0.991-0.986,1.487-2.296,1.487-3.574v-0.394c0-3.005,1.16-6.039,3.464-8.358c2.312-2.309,5.332-3.448,8.358-3.448h18.803v-70.17
	H109.67z"/>
<path style="fill:#0684BA;" d="M231.314,293.048c0,4.324-1.641,8.645-4.943,11.937c-3.295,3.323-7.621,4.938-11.94,4.938h-51.336
	c-4.316,0-8.65-1.615-11.953-4.938c-3.297-3.292-4.941-7.613-4.941-11.937v-38.016h85.115v38.016H231.314z"/>
<path style="fill:#FF8E31;" d="M365.793,293.048c0,4.324-1.651,8.645-4.938,11.937c-3.3,3.323-7.639,4.938-11.953,4.938h-51.325
	c-4.334,0-8.66-1.615-11.955-4.938c-3.3-3.292-4.943-7.613-4.943-11.937v-38.016h85.112v38.016H365.793z"/>
<path style="fill:#0AAAD8;" d="M146.202,289.605v-34.573h13.394l54.899,54.889c-0.028,0-0.046,0-0.064,0h-47.898L146.202,289.605z"
	/>
<path style="fill:#FFAE45;" d="M280.681,289.605v-34.573h13.379l54.907,54.889c-0.02,0-0.044,0-0.061,0h-47.892L280.681,289.605z"/>
<g>
</g>
<g>
</g>
<g>
</g>
<g>
</g>
<g>
</g>
<g>
</g>
<g>
</g>
<g>
</g>
<g>
</g>
<g>
</g>
<g>
</g>
<g>
</g>
<g>
</g>
<g>
</g>
<g>
</g>
</svg>
