<?xml version="1.0" encoding="iso-8859-1"?>
<!-- Generator: Adobe Illustrator 17.1.0, SVG Export Plug-In . SVG Version: 6.00 Build 0)  -->
<!DOCTYPE svg PUBLIC "-//W3C//DTD SVG 1.1//EN" "http://www.w3.org/Graphics/SVG/1.1/DTD/svg11.dtd">
<svg xmlns="http://www.w3.org/2000/svg" xmlns:xlink="http://www.w3.org/1999/xlink" version="1.1" id="Capa_1" x="0px" y="0px" viewBox="0 0 230.485 230.485" style="enable-background:new 0 0 230.485 230.485;" xml:space="preserve" width="512px" height="512px">
<g>
	<path d="M207.393,0h-184.3c-12.407,0-22.5,10.094-22.5,22.5v151.771c0,12.406,10.093,22.5,22.5,22.5h63.371   v18.714H70.783c-4.142,0-7.5,3.357-7.5,7.5c0,4.143,3.358,7.5,7.5,7.5h15.681h57.559h15.679c4.142,0,7.5-3.357,7.5-7.5   c0-4.143-3.358-7.5-7.5-7.5h-15.679v-18.714h63.37c12.407,0,22.5-10.094,22.5-22.5V22.5C229.893,10.094,219.799,0,207.393,0z    M129.023,215.485h-27.559v-18.714h27.559V215.485z M214.893,174.271c0,4.136-3.364,7.5-7.5,7.5h-63.37H86.464H23.093   c-4.136,0-7.5-3.364-7.5-7.5V22.5c0-4.136,3.364-7.5,7.5-7.5h184.3c4.136,0,7.5,3.364,7.5,7.5V174.271z" fill="#FFFFFF"/>
	<path d="M181.913,73.989l-31.594-31.593c-1.953-1.953-5.118-1.953-7.071,0c-1.953,1.952-1.953,5.118,0,7.07   l23.577,23.576h-38.411c-5.514,0-10,4.486-10,10v12.799h-6.342V83.043c0-5.514-4.486-10-10-10h-38.6l23.576-23.576   c1.953-1.952,1.953-5.118,0-7.07c-1.953-1.953-5.118-1.953-7.071,0l-31.77,31.77c-3.212,1.665-5.415,5.017-5.415,8.877v35.598   c0,5.514,4.486,10,10,10h49.279c5.514,0,10-4.486,10-10v-12.799h6.342v12.799c0,5.514,4.486,10,10,10h49.279   c5.514,0,10-4.486,10-10V83.043C187.693,79.038,185.321,75.585,181.913,73.989z M102.058,118.641H52.793V83.563   c0.229-0.148,0.441-0.33,0.649-0.521h48.63L102.058,118.641z M102.072,123.641v-5c0,0,0,0,0,0L102.072,123.641z M128.414,118.641   V83.043h48.441c0.262,0.24,0.542,0.446,0.838,0.62l-0.015,34.978H128.414z M177.693,123.641v-5c0.001,0,0.001,0,0.001,0   L177.693,123.641z" fill="#FFFFFF"/>
</g>
<g>
</g>
<g>
</g>
<g>
</g>
<g>
</g>
<g>
</g>
<g>
</g>
<g>
</g>
<g>
</g>
<g>
</g>
<g>
</g>
<g>
</g>
<g>
</g>
<g>
</g>
<g>
</g>
<g>
</g>
</svg>
