<?xml version="1.0" encoding="iso-8859-1"?>
<!-- Generator: Adobe Illustrator 19.0.0, SVG Export Plug-In . SVG Version: 6.00 Build 0)  -->
<svg xmlns="http://www.w3.org/2000/svg" xmlns:xlink="http://www.w3.org/1999/xlink" version="1.1" id="Layer_1" x="0px" y="0px" viewBox="0 0 512 512" style="enable-background:new 0 0 512 512;" xml:space="preserve" width="512px" height="512px">
<g transform="translate(1 1)">
	<g>
		<g>
			<path d="M472.6,178.2c-7.68,0-15.36,2.56-21.333,7.68v-7.68c0-20.48-16.213-42.667-38.4-42.667c-7.68,0-15.36,2.56-21.333,7.68     c0-19.627-17.067-41.813-38.4-41.813c-7.68,0-15.36,2.56-21.333,7.68V41.667C331.8,21.187,315.587-1,293.4-1     C271.213-1,255,21.187,255,41.667v180.907c-7.68-16.213-17.92-31.573-28.16-41.813c-13.653-13.653-40.96-14.507-56.32-1.707     c-4.267,4.267-18.773,19.627,0.853,46.933c17.92,25.6,32.427,81.92,32.427,114.347c0,68.267,44.373,98.987,59.733,107.52v54.613     c0,5.12,3.413,8.533,8.533,8.533c5.12,0,8.533-3.413,8.533-8.533v-59.733c0-3.413-1.707-5.973-5.12-7.68     c-2.56-0.853-54.613-25.6-54.613-94.72c0-31.573-13.653-93.867-35.84-124.587c-5.973-7.68-11.093-17.92-3.413-23.893     c8.533-6.827,25.6-6.827,33.28,0.853C236.227,214.04,255,259.267,255,280.6c0,5.12,3.413,8.533,8.533,8.533     s8.533-3.413,8.533-8.533V41.667c0-11.947,9.387-25.6,21.333-25.6c11.947,0,21.333,13.653,21.333,25.6V229.4     c0,5.12,3.413,8.533,8.533,8.533s8.533-3.413,8.533-8.533v-85.333c0-11.947,9.387-25.6,21.333-25.6     c11.947,0,21.333,13.653,21.333,25.6v93.867c0,5.12,3.413,8.533,8.533,8.533s8.533-3.413,8.533-8.533V178.2     c0-11.947,9.387-25.6,21.333-25.6c11.947,0,21.333,13.653,21.333,25.6v40.96c0,0.853,0,0.853,0,1.707V255     c0,5.12,3.413,8.533,8.533,8.533s8.533-3.413,8.533-8.533v-35.84c0.853-11.093,10.24-23.893,21.333-23.893     c11.947,0,21.333,13.653,21.333,25.6v119.467c0,64.853,0,64.853-23.893,97.28c-1.707,1.707-1.707,4.267-1.707,5.973v58.88     c0,5.12,3.413,8.533,8.533,8.533s8.533-3.413,8.533-8.533v-57.173c25.6-34.133,25.6-38.4,25.6-104.96V220.867     C511,200.387,494.787,178.2,472.6,178.2z" fill="#FFFFFF"/>
			<path d="M73.24,39.107l11.093-11.093v30.72c0,5.12,3.413,8.533,8.533,8.533c5.12,0,8.533-3.413,8.533-8.533v-30.72l11.093,11.093     c1.707,1.707,3.413,2.56,5.973,2.56s4.267-0.853,5.973-2.56c3.413-3.413,3.413-8.533,0-11.947L100.3,3.02     C98.905,0.511,96.266-1,92.867-1h0c0,0,0,0,0,0c-3.399,0-6.038,1.511-7.433,4.02l-24.14,24.14c-3.413,3.413-3.413,8.533,0,11.947     S69.827,42.52,73.24,39.107z" fill="#FFFFFF"/>
			<path d="M112.493,146.627L101.4,157.72V127c0-5.12-3.413-8.533-8.533-8.533c-5.12,0-8.533,3.413-8.533,8.533v30.72L73.24,146.627     c-3.413-3.413-8.533-3.413-11.947,0s-3.413,8.533,0,11.947l24.14,24.14c1.395,2.509,4.034,4.02,7.434,4.02     c3.399,0,6.038-1.511,7.434-4.02l24.14-24.14c3.413-3.413,3.413-8.533,0-11.947S115.907,143.213,112.493,146.627z" fill="#FFFFFF"/>
			<path d="M186.733,92.867L186.733,92.867C186.733,92.867,186.733,92.866,186.733,92.867c0-3.399-1.511-6.038-4.02-7.434     l-24.14-24.14c-3.413-3.413-8.533-3.413-11.947,0s-3.413,8.533,0,11.947l11.093,11.093H127c-5.12,0-8.533,3.413-8.533,8.533     c0,5.12,3.413,8.533,8.533,8.533h30.72l-11.093,11.093c-3.413,3.413-3.413,8.533,0,11.947c1.707,1.707,3.413,2.56,5.973,2.56     c2.56,0,4.267-0.853,5.973-2.56l24.14-24.14C185.223,98.905,186.733,96.266,186.733,92.867z" fill="#FFFFFF"/>
			<path d="M28.013,101.4h30.72c5.12,0,8.533-3.413,8.533-8.533c0-5.12-3.413-8.533-8.533-8.533h-30.72L39.107,73.24     c3.413-3.413,3.413-8.533,0-11.947s-8.533-3.413-11.947,0L3.02,85.433C0.511,86.828-1,89.467-1,92.866c0,0,0,0,0,0v0     c0,3.399,1.511,6.038,4.02,7.434l24.14,24.14c1.707,1.707,3.413,2.56,5.973,2.56s4.267-0.853,5.973-2.56     c3.413-3.413,3.413-8.533,0-11.947L28.013,101.4z" fill="#FFFFFF"/>
			<path d="M383,434.2c5.12,0,8.533-3.413,8.533-8.533s-3.413-8.533-8.533-8.533h-25.6c-5.12,0-8.533,3.413-8.533,8.533     s3.413,8.533,8.533,8.533H383z" fill="#FFFFFF"/>
			<path d="M391.533,451.267h-42.667c-5.12,0-8.533,3.413-8.533,8.533c0,5.12,3.413,8.533,8.533,8.533h42.667     c5.12,0,8.533-3.413,8.533-8.533C400.067,454.68,396.653,451.267,391.533,451.267z" fill="#FFFFFF"/>
		</g>
	</g>
</g>
<g>
</g>
<g>
</g>
<g>
</g>
<g>
</g>
<g>
</g>
<g>
</g>
<g>
</g>
<g>
</g>
<g>
</g>
<g>
</g>
<g>
</g>
<g>
</g>
<g>
</g>
<g>
</g>
<g>
</g>
</svg>
