<?xml version="1.0" encoding="iso-8859-1"?>
<!-- Generator: Adobe Illustrator 19.0.0, SVG Export Plug-In . SVG Version: 6.00 Build 0)  -->
<svg xmlns="http://www.w3.org/2000/svg" xmlns:xlink="http://www.w3.org/1999/xlink" version="1.1" id="Capa_1" x="0px" y="0px" viewBox="0 0 469.333 469.333" style="enable-background:new 0 0 469.333 469.333;" xml:space="preserve" width="512px" height="512px">
<g>
	<g>
		<path d="M423.531,173.803L252.864,3.136c-4.16-4.16-10.923-4.16-15.083,0c-4.16,4.16-4.16,10.923,0,15.083l170.667,170.667    c2.091,2.069,4.821,3.115,7.552,3.115c2.731,0,5.461-1.045,7.531-3.115C427.691,184.725,427.691,177.963,423.531,173.803z" fill="#FFFFFF"/>
	</g>
</g>
<g>
	<g>
		<path d="M416,106.667c-5.888,0-10.667,4.779-10.667,10.667v53.333H352c-5.888,0-10.667,4.779-10.667,10.667S346.112,192,352,192    h64c5.888,0,10.667-4.779,10.667-10.667v-64C426.667,111.445,421.888,106.667,416,106.667z" fill="#FFFFFF"/>
	</g>
</g>
<g>
	<g>
		<path d="M309.333,0h-64c-5.888,0-10.667,4.779-10.667,10.667v64c0,5.888,4.779,10.667,10.667,10.667S256,80.555,256,74.667V21.333    h53.333c5.888,0,10.667-4.779,10.667-10.667S315.221,0,309.333,0z" fill="#FFFFFF"/>
	</g>
</g>
<g>
	<g>
		<path d="M317.909,267.435c-15.36-20.501-44.117-25.429-65.472-11.221l-17.771,11.84V138.667c0-17.643-14.357-32-32-32    s-32,14.357-32,32v33.813c-3.328-1.173-6.933-1.813-10.667-1.813c-14.72,0-27.179,10.005-30.869,23.573    c-3.669-1.429-7.637-2.24-11.797-2.24c-14.72,0-27.179,10.005-30.869,23.573c-3.669-1.429-7.637-2.24-11.797-2.24    c-17.643,0-32,14.357-32,32v85.333c0,52.928,43.072,96,96,96h35.84c20.885,0,40.939-8.832,55.061-24.192l86.336-94.208    C326.293,296.896,327.147,279.744,317.909,267.435z M300.16,293.824l-86.336,94.208c-10.069,11.008-24.405,17.301-39.317,17.301    h-35.84C97.493,405.333,64,371.84,64,330.667v-85.333c0-5.888,4.779-10.667,10.667-10.667s10.667,4.779,10.667,10.667V256    c0,5.888,4.779,10.667,10.667,10.667s10.667-4.779,10.667-10.667v-32c0-5.888,4.779-10.667,10.667-10.667S128,218.112,128,224v32    c0,5.888,4.779,10.667,10.667,10.667s10.667-4.779,10.667-10.667v-53.333c0-5.888,4.779-10.667,10.667-10.667    s10.667,4.779,10.667,10.667V256c0,5.888,4.779,10.667,10.667,10.667S192,261.888,192,256V138.667    c0-5.888,4.779-10.667,10.667-10.667s10.667,4.779,10.667,10.667V288c0,3.947,2.176,7.552,5.653,9.387    c3.435,1.856,7.659,1.643,10.944-0.533l34.347-22.912c11.925-7.915,27.989-5.184,36.565,6.272    C303.915,284.309,303.637,290.048,300.16,293.824z" fill="#FFFFFF"/>
	</g>
</g>
<g>
	<g>
		<path d="M224,405.333H74.667C68.779,405.333,64,410.112,64,416v42.667c0,5.888,4.779,10.667,10.667,10.667    s10.667-4.779,10.667-10.667v-32h128v32c0,5.888,4.779,10.667,10.667,10.667s10.667-4.779,10.667-10.667V416    C234.667,410.112,229.888,405.333,224,405.333z" fill="#FFFFFF"/>
	</g>
</g>
<g>
</g>
<g>
</g>
<g>
</g>
<g>
</g>
<g>
</g>
<g>
</g>
<g>
</g>
<g>
</g>
<g>
</g>
<g>
</g>
<g>
</g>
<g>
</g>
<g>
</g>
<g>
</g>
<g>
</g>
</svg>
